<?xml version="1.0" encoding="UTF-8"?>
<svg width="41px" height="47px" viewBox="0 0 41 47" version="1.1" xmlns="http://www.w3.org/2000/svg" xmlns:xlink="http://www.w3.org/1999/xlink">
    <!-- Generator: Sketch 59.1 (86144) - https://sketch.com -->
    <title>Laundry/Dryer-with-number</title>
    <desc>Created with Sketch.</desc>
    <g id="Symbols" stroke="none" stroke-width="1" fill="none" fill-rule="evenodd">
        <g id="Laundry/Icon/Machine-no/Dryer" fill-rule="nonzero">
            <g id="Laundry/Dryer-with-number">
                <rect id="Rectangle" fill="#FF6E7D" x="0" y="8.17391304" width="40.8695652" height="38.826087"></rect>
                <path d="M34.7391358,27.5869565 C34.7452658,34.6941296 29.5323747,40.7279084 22.4996358,41.7538368 C15.4668968,42.7797652 8.74752971,38.4866513 6.72304348,31.673913 L4.08695652,31.673913 L4.08695652,23.5 L6.72304348,23.5 C8.74752971,16.6872618 15.4668968,12.3941479 22.4996358,13.4200762 C29.5323747,14.4460046 34.7452658,20.4797835 34.7391358,27.5869565 L34.7391358,27.5869565 Z" id="Path" fill="#DAD7E5"></path>
                <path d="M16.3478261,41.2986957 C11.7208994,39.9202518 8.10148737,36.3008398 6.72304348,31.673913 L4.08695652,31.673913 L4.08695652,23.5 L6.72304348,23.5 C8.10148737,18.8730733 11.7208994,15.2536613 16.3478261,13.8752174 C29.9267391,17.9213043 29.9369565,37.2526087 16.3478261,41.2986957 Z" id="Path" fill="#C6C3D8"></path>
                <path d="M30.6521739,27.5869565 C30.6492397,30.5589874 29.3523719,33.3824484 27.0997196,35.3211422 C24.8470672,37.259836 21.8619109,38.1216014 18.9226087,37.6817391 L18.9226087,37.6817391 C13.9493933,36.9042772 10.2833331,32.6205754 10.2833331,27.5869565 C10.2833331,22.5533377 13.9493933,18.2696359 18.9226087,17.4921739 C18.9226087,17.4921739 18.9226087,17.4921739 18.9226087,17.4921739 C21.8619109,17.0523117 24.8470672,17.914077 27.0997196,19.8527709 C29.3523719,21.7914647 30.6492397,24.6149256 30.6521739,27.5869565 L30.6521739,27.5869565 Z" id="Path" fill="#FCDB74"></path>
                <path d="M27.5869565,27.5869565 C27.5850381,32.6287159 23.9057857,36.915392 18.9226087,37.6817391 L18.9226087,37.6817391 C13.9493933,36.9042772 10.2833331,32.6205754 10.2833331,27.5869565 C10.2833331,22.5533377 13.9493933,18.2696359 18.9226087,17.4921739 C18.9226087,17.4921739 18.9226087,17.4921739 18.9226087,17.4921739 C23.9057857,18.258521 27.5850381,22.5451971 27.5869565,27.5869565 Z" id="Path" fill="#FFCF6F"></path>
                <rect id="Rectangle" fill="#EDEBF2" x="0" y="0" width="41" height="8.17391304"></rect>
                <path d="M20.4347826,6.13043478 C19.3062007,6.13043478 18.3913043,5.2155384 18.3913043,4.08695652 C18.3913043,2.95837464 19.3062007,2.04347826 20.4347826,2.04347826 C21.5633645,2.04347826 22.4782609,2.95837464 22.4782609,4.08695652 C22.4782609,4.62892065 22.2629665,5.14868734 21.8797399,5.53191386 C21.4965134,5.91514037 20.9767467,6.13043478 20.4347826,6.13043478 Z" id="Path" fill="#FF6E7D"></path>
                <path d="M36.7826087,5.10869565 L26.5652174,5.10869565 C26.0009265,5.10869565 25.5434783,4.65124746 25.5434783,4.08695652 C25.5434783,3.52266558 26.0009265,3.06521739 26.5652174,3.06521739 L36.7826087,3.06521739 C37.3468996,3.06521739 37.8043478,3.52266558 37.8043478,4.08695652 C37.8043478,4.65124746 37.3468996,5.10869565 36.7826087,5.10869565 Z" id="Path" fill="#FF6E7D"></path>
                <path d="M14.3043478,5.10869565 L4.08695652,5.10869565 C3.52266558,5.10869565 3.06521739,4.65124746 3.06521739,4.08695652 C3.06521739,3.52266558 3.52266558,3.06521739 4.08695652,3.06521739 L14.3043478,3.06521739 C14.8686388,3.06521739 15.326087,3.52266558 15.326087,4.08695652 C15.326087,4.65124746 14.8686388,5.10869565 14.3043478,5.10869565 Z" id="Path" fill="#FF6E7D"></path>
            </g>
        </g>
    </g>
</svg>