<?xml version="1.0" encoding="UTF-8"?>
<svg width="41px" height="47px" viewBox="0 0 41 47" version="1.1" xmlns="http://www.w3.org/2000/svg" xmlns:xlink="http://www.w3.org/1999/xlink">
    <!-- Generator: Sketch 59.1 (86144) - https://sketch.com -->
    <title>Laundry/Washer-with-number</title>
    <desc>Created with Sketch.</desc>
    <g id="Symbols" stroke="none" stroke-width="1" fill="none" fill-rule="evenodd">
        <g id="Laundry/Icon/Machine-no/Washer" fill-rule="nonzero">
            <g id="Laundry/Washer-with-number">
                <rect id="Rectangle" fill="#82BCF4" x="0" y="8" width="41" height="39"></rect>
                <rect id="Rectangle" fill="#6FABE6" x="2.04347826" y="23.5" width="2.04347826" height="8.17391304"></rect>
                <path d="M4.67956522,23.5 L6.72304348,23.5 C8.53084297,17.4364554 14.1074839,13.2809853 20.4347826,13.2826082 L18.3913043,13.2826082 C12.0640056,13.2809853 6.48736471,17.4364554 4.67956522,23.5 L4.67956522,23.5 Z" id="Path" fill="#6FABE6"></path>
                <path d="M6.72304348,31.673913 L4.67956522,31.673913 C6.48736471,37.7374576 12.0640056,41.8929278 18.3913043,41.8913048 L20.4347826,41.8913048 C14.1074839,41.8929278 8.53084297,37.7374576 6.72304348,31.673913 Z" id="Path" fill="#6FABE6"></path>
                <path d="M34.7391358,27.5869565 C34.7452658,34.6941296 29.5323747,40.7279084 22.4996358,41.7538368 C15.4668968,42.7797652 8.74752971,38.4866513 6.72304348,31.673913 L4.08695652,31.673913 L4.08695652,23.5 L6.72304348,23.5 C8.74752971,16.6872618 15.4668968,12.3941479 22.4996358,13.4200762 C29.5323747,14.4460046 34.7452658,20.4797835 34.7391358,27.5869565 L34.7391358,27.5869565 Z" id="Path" fill="#EDEBF2"></path>
                <path d="M28.6086967,27.5869565 C28.6111946,34.3078913 23.9343801,40.1241479 17.3695652,41.5643478 C12.2856916,40.4498898 8.20831282,36.6620753 6.72304348,31.673913 L4.08695652,31.673913 L4.08695652,23.5 L6.72304348,23.5 C8.20831282,18.5118378 12.2856916,14.7240233 17.3695652,13.6095652 C23.9343801,15.0497652 28.6111946,20.8660217 28.6086967,27.5869565 Z" id="Path" fill="#DAD7E5"></path>
                <rect id="Rectangle" fill="#EDEBF2" x="12.2608696" y="-5.32907052e-15" width="28.6086957" height="8.17391304"></rect>
                <rect id="Rectangle" fill="#EDEBF2" x="15.326087" y="-5.32907052e-15" width="25.5434783" height="8.17391304"></rect>
                <path d="M36.7826087,5.10869565 L26.5652174,5.10869565 C26.0009265,5.10869565 25.5434783,4.65124746 25.5434783,4.08695652 C25.5434783,3.52266558 26.0009265,3.06521739 26.5652174,3.06521739 L36.7826087,3.06521739 C37.3468996,3.06521739 37.8043478,3.52266558 37.8043478,4.08695652 C37.8043478,4.65124746 37.3468996,5.10869565 36.7826087,5.10869565 Z" id="Path" fill="#425B72"></path>
                <rect id="Rectangle" fill="#EDEBF2" x="-7.10542736e-15" y="-5.32907052e-15" width="12.2608696" height="8.17391304"></rect>
                <rect id="Rectangle" fill="#EDEBF2" x="-7.10542736e-15" y="-2.66453526e-15" width="12.2608696" height="4.08695652"></rect>
                <path d="M28.9356522,33.2576087 C25.9419565,31.2652174 27.913913,32.5934783 20.4347826,27.5869565 L20.4347826,17.3695651 C24.2038439,17.3690011 27.6671227,19.4434755 29.445234,22.7667485 C31.2233454,26.0900215 31.0274813,30.1223137 28.9356522,33.2576087 Z" id="Path" fill="#B2E5FB"></path>
                <path d="M26.6878261,31.7658696 L20.4347826,27.5869565 L20.4347826,17.8395652 C23.2165649,18.7158197 25.4912868,20.7390987 26.685935,23.3997284 C27.8805831,26.0603582 27.8812712,29.1047 26.6878261,31.7658696 L26.6878261,31.7658696 Z" id="Path" fill="#9FDBF3"></path>
                <path d="M20.4347826,17.3695651 L20.4347826,27.5869565 L11.933913,33.2576087 C9.84208394,30.1223137 9.64621984,26.0900215 11.4243312,22.7667485 C13.2024425,19.4434755 16.6657213,17.3690011 20.4347826,17.3695651 L20.4347826,17.3695651 Z" id="Path" fill="#9FDBF3"></path>
                <path d="M28.9356522,33.2576087 C27.0406001,36.0996285 23.8506718,37.8066403 20.4347826,37.8066403 C17.0188934,37.8066403 13.8289651,36.0996285 11.933913,33.2576087 L20.4347826,27.5869565 L28.9356522,33.2576087 Z" id="Path" fill="#B2E5FB"></path>
                <path d="M26.5652174,31.673913 C23.1794718,36.1882406 16.7751971,37.1031369 12.2608696,33.7173913 L11.9543478,33.2780435 L20.4347826,27.5869565 L26.5652174,31.673913 Z" id="Path" fill="#9FDBF3"></path>
                <path d="M20.4347826,6.13043478 C19.3062007,6.13043478 18.3913043,5.2155384 18.3913043,4.08695652 C18.3913043,2.95837464 19.3062007,2.04347826 20.4347826,2.04347826 C21.5633645,2.04347826 22.4782609,2.95837464 22.4782609,4.08695652 C22.4782609,4.62892065 22.2629665,5.14868734 21.8797399,5.53191386 C21.4965134,5.91514037 20.9767467,6.13043478 20.4347826,6.13043478 Z" id="Path" fill="#425B72"></path>
            </g>
        </g>
    </g>
</svg>